<?xml version="1.0" encoding="UTF-8"?>
<svg version="1.1" xmlns="http://www.w3.org/2000/svg" width="1024" height="1024">
<path d="M0 0 C337.92 0 675.84 0 1024 0 C1024 337.92 1024 675.84 1024 1024 C686.08 1024 348.16 1024 0 1024 C0 686.08 0 348.16 0 0 Z " fill="#FAFBFC" transform="translate(0,0)"/>
<path d="M0 0 C2.71456736 1.31927424 4.91436994 2.61663817 7.1796875 4.6171875 C8.06720703 5.39449219 8.06720703 5.39449219 8.97265625 6.1875 C9.60042969 6.744375 10.22820312 7.30125 10.875 7.875 C12.22622282 9.06028318 13.57779303 10.24517044 14.9296875 11.4296875 C15.6112793 12.0287793 16.29287109 12.62787109 16.99511719 13.24511719 C19.97607693 15.85436446 22.98709425 18.42778664 26 21 C45.32189924 37.53693364 45.32189924 37.53693364 53.25 44.75 C56.52149835 47.71967972 59.86969572 50.54339555 63.3125 53.3125 C68.12745744 57.20385488 72.65087171 61.33129144 77.16552734 65.56005859 C80.49102233 68.65736226 83.88692543 71.59599759 87.4375 74.4375 C92.60282984 78.57735995 97.42596135 83.02422986 102.23022461 87.57202148 C103.8083061 89.06143908 105.40164661 90.53241851 107 92 C107.63679688 92.60328125 108.27359375 93.2065625 108.9296875 93.828125 C112.02256985 95.57881312 115.21525181 95.62408887 118.6875 95.875 C138.39570546 97.80988693 154.9210307 104.74873562 169 119 C169.69609375 119.67417969 170.3921875 120.34835937 171.109375 121.04296875 C181.68070357 131.96257753 188.23930433 147.15292896 189.5625 162.1875 C190.6929072 169.90685724 196.1352782 173.43588997 202 178 C203.36293915 179.17742112 204.71817056 180.36387497 206.0625 181.5625 C206.69542969 182.11292969 207.32835937 182.66335938 207.98046875 183.23046875 C212.02666497 186.77578188 216.00675421 190.39531855 220 194 C221.87474528 195.68778298 223.74973662 197.37529269 225.625 199.0625 C227.08333333 200.375 228.54166667 201.6875 230 203 C234.82029412 199.58197326 239.12988831 196.00700982 243.2421875 191.765625 C245.59479156 189.40256492 248.10810489 187.2579952 250.6328125 185.08203125 C253.63722313 182.43953808 256.5674006 179.72166024 259.5 177 C272.65834659 164.80648554 272.65834659 164.80648554 276.10546875 162.734375 C278.82897549 160.24110285 279.00337278 157.89707254 279.75 154.3125 C282.81344142 141.32790293 289.00716078 129.85718164 298 120 C298.51691406 119.3915625 299.03382813 118.783125 299.56640625 118.15625 C311.57661995 104.91190406 330.91073977 96.81859389 348.49609375 95.796875 C353.22854552 94.72059834 355.41910617 92.39155031 358.75 89 C359.97795752 87.8034071 361.20844994 86.60941029 362.44140625 85.41796875 C363.04355957 84.83192871 363.64571289 84.24588867 364.26611328 83.64208984 C366.63613567 81.39754315 369.13832653 79.34964436 371.6875 77.3125 C375.41609555 74.32634807 378.98565879 71.23597755 382.5 68 C386.0355077 64.74492917 389.62778787 61.63363119 393.375 58.625 C398.81386605 54.23655873 403.90728904 49.53553588 409.015625 44.7734375 C412.60397882 41.428627 416.27699894 38.19397782 420 35 C420.4851709 34.58314941 420.9703418 34.16629883 421.47021484 33.73681641 C424.40320684 31.21719324 427.33906381 28.70095428 430.27734375 26.1875 C432.73163705 24.08768 435.1820438 21.98347363 437.62890625 19.875 C443.11622595 15.14912171 448.61926562 10.44292648 454.1875 5.8125 C455.47720703 4.73935547 455.47720703 4.73935547 456.79296875 3.64453125 C459 2 459 2 462 1 C462.29760967 43.12437954 462.52665242 85.2486377 462.66384928 127.37386044 C462.68010831 132.34803759 462.69693451 137.32221266 462.71411133 142.29638672 C462.71752136 143.28664772 462.7209314 144.27690872 462.72444477 145.29717763 C462.78099949 161.32772969 462.88349104 177.35767518 463.00298635 193.3878675 C463.12459298 209.83859846 463.19677153 226.28901195 463.22315043 242.74017394 C463.2409814 252.8903706 463.29727464 263.03885287 463.40291407 273.1885217 C463.47167882 280.1503235 463.49239187 287.11124022 463.47551791 294.07335691 C463.46719636 298.08984959 463.479864 302.10334945 463.54967117 306.11930847 C463.96932731 331.4903676 463.96932731 331.4903676 459.16747093 337.04352188 C456.10637209 339.7465149 452.74203508 341.37704904 449 343 C447.44604304 344.08023134 445.91295349 345.19281095 444.42578125 346.36328125 C443.05616944 347.34841775 441.68506981 348.33148902 440.3125 349.3125 C438.76560905 350.42445697 437.21873452 351.5364368 435.671875 352.6484375 C434.89779297 353.20370117 434.12371094 353.75896484 433.32617188 354.33105469 C429.56762685 357.02767662 425.81421142 359.73138121 422.0625 362.4375 C421.32443115 362.96947998 420.5863623 363.50145996 419.82592773 364.04956055 C415.12225402 367.44662989 410.4482019 370.88136831 405.78735352 374.33691406 C398.96909377 379.39074813 392.11910317 384.37895243 385.125 389.1875 C384.47708496 389.63303223 383.82916992 390.07856445 383.16162109 390.53759766 C373.68292827 397 373.68292827 397 371 397 C371 347.83 371 298.66 371 248 C369.02 248.33 367.04 248.66 365 249 C352.47539994 249.87938681 339.22257594 249.7228944 327.609375 244.46484375 C324.15315689 243.6443747 324.15315689 243.6443747 322.07543945 245.13476562 C319.94588079 246.97069177 318.00325954 248.90316479 316.0625 250.9375 C314.72135353 252.28124811 313.37890688 253.62369981 312.03515625 254.96484375 C311.37016113 255.63950684 310.70516602 256.31416992 310.02001953 257.00927734 C307.42448561 259.56716756 304.69561948 261.94139243 301.93530273 264.31860352 C298.88494329 266.96876442 295.94712613 269.73623579 293 272.5 C288.78989763 276.43031709 284.55018474 280.30156488 280.1875 284.0625 C277.07388655 286.82027191 274.04099292 289.66261481 271 292.5 C266.76272386 296.45327491 262.50119127 300.35487696 258.109375 304.13671875 C255.82652715 306.15323435 253.60074564 308.22348247 251.37402344 310.30151367 C245.11450732 316.14149361 238.70942938 321.6754829 232 327 C226.81808762 324.3326895 222.96901238 320.37731252 218.8125 316.375 C217.28720524 314.9223924 215.76116789 313.47056413 214.234375 312.01953125 C213.50283203 311.3229541 212.77128906 310.62637695 212.01757812 309.90869141 C208.08593363 306.18923392 204.04533791 302.59507421 200 299 C194.59482498 294.15731474 189.21640126 289.2878168 183.875 284.375 C179.98326682 280.79671143 176.05319075 277.27168512 172.05859375 273.80859375 C169.5104335 271.5698875 167.00589407 269.28589788 164.5 267 C160.71760082 263.55057681 156.92206815 260.12640799 153.0234375 256.80859375 C151.49514503 255.44257172 150.03106773 254.00424061 148.6015625 252.53515625 C144.24046839 247.89625719 144.24046839 247.89625719 138.5390625 245.58203125 C135.29185606 245.90027906 132.67727766 246.69753346 129.70068359 248.02685547 C125.05242898 249.70177347 120.33064254 249.32753732 115.4375 249.3125 C114.41591797 249.32861328 113.39433594 249.34472656 112.34179688 249.36132812 C110.80942383 249.36229492 110.80942383 249.36229492 109.24609375 249.36328125 C107.87988892 249.36775269 107.87988892 249.36775269 106.48608398 249.37231445 C101.23295311 248.81127905 96.12526794 247.28131698 91 246 C91 295.83 91 345.66 91 397 C87.06434801 395.03217401 83.54360288 392.74408098 79.9375 390.25 C79.23995605 389.76901855 78.54241211 389.28803711 77.82373047 388.79248047 C70.71318995 383.85578313 63.76155515 378.70961477 56.80859375 373.5546875 C46.95644952 366.25488122 36.98244501 359.12016278 27 352 C21.40870106 348.01107035 15.82524181 344.01134672 10.25 340 C9.46238281 339.43539063 8.67476563 338.87078125 7.86328125 338.2890625 C6.76306641 337.49628906 6.76306641 337.49628906 5.640625 336.6875 C4.98610352 336.21699219 4.33158203 335.74648438 3.65722656 335.26171875 C2 334 2 334 0 332 C-0.24839699 329.62280929 -0.24839699 329.62280929 -0.24609566 326.5689373 C-0.25007775 325.40846787 -0.25405985 324.24799845 -0.25816262 323.05236328 C-0.25233693 321.76639413 -0.24651125 320.48042497 -0.24050903 319.15548706 C-0.24138047 317.78432642 -0.2431303 316.4131661 -0.24568737 315.04200757 C-0.25017711 311.26116149 -0.24213502 307.4804279 -0.23213124 303.69959617 C-0.22352236 299.62733691 -0.22641508 295.55508439 -0.22793579 291.4828186 C-0.22898627 284.42302819 -0.22269269 277.36327464 -0.21146011 270.3034935 C-0.1952301 260.09614553 -0.18999967 249.88881546 -0.18748413 239.68145598 C-0.18310309 223.12209986 -0.16978293 206.56276341 -0.15087891 190.00341797 C-0.13253067 173.91422626 -0.118369 157.82503989 -0.10986328 141.73583984 C-0.10933783 140.74468276 -0.10881239 139.75352567 -0.10827102 138.73233353 C-0.10566101 133.76016317 -0.10313358 128.78799278 -0.10064721 123.81582236 C-0.07990199 82.54386789 -0.04466537 41.27193507 0 0 Z " fill="#2D2C67" transform="translate(281,292)"/>
<path d="M0 0 C3.58563298 2.16438468 6.58462502 4.66568485 9.703125 7.4453125 C10.9404779 8.52840524 12.17876935 9.61042664 13.41796875 10.69140625 C14.02624512 11.22362793 14.63452148 11.75584961 15.26123047 12.30419922 C17.71835416 14.42759723 20.23799543 16.46916959 22.765625 18.5078125 C27.20397539 22.1119355 31.46952922 25.8690697 35.69921875 29.71484375 C40.15174407 33.76191145 44.69833555 37.69795021 49.2734375 41.60546875 C50.47919176 42.63538729 51.68492023 43.66533603 52.890625 44.6953125 C53.8034021 45.47479248 53.8034021 45.47479248 54.73461914 46.27001953 C58.27186358 49.29923783 61.75955077 52.37179833 65.203125 55.5078125 C68.5164558 58.51845729 71.90504429 61.38596428 75.390625 64.1953125 C80.52743087 68.35125727 85.37916405 72.75418097 90.22265625 77.2421875 C93.75929324 80.50677549 97.35403012 83.69674789 101.015625 86.8203125 C101.91796875 87.68914062 102.8203125 88.55796875 103.75 89.453125 C107.16866577 92.28694904 110.56817196 92.60501218 114.890625 92.8203125 C136.50003476 94.73177899 154.88127386 104.45312519 170.015625 119.8203125 C171.11777344 120.81804687 171.11777344 120.81804687 172.2421875 121.8359375 C181.87408844 130.6868735 189.93446951 144.22922982 191.6796875 157.3046875 C193.51394944 170.38469066 198.05451422 176.62643339 208.47509766 184.72314453 C210.0372465 185.8955394 210.0372465 185.8955394 212.015625 186.8203125 C212.015625 187.4803125 212.015625 188.1403125 212.015625 188.8203125 C212.881875 189.2534375 212.881875 189.2534375 213.765625 189.6953125 C215.84895833 190.73697917 217.93229167 191.77864583 220.015625 192.8203125 C220.75425781 192.13066406 221.49289062 191.44101562 222.25390625 190.73046875 C227.28752808 186.05895993 232.33792951 181.48898878 237.703125 177.1953125 C239.4746213 175.73778457 241.24548236 174.27948413 243.015625 172.8203125 C243.83289063 172.18480469 244.65015625 171.54929687 245.4921875 170.89453125 C251.58717983 165.64549939 253.48859088 160.37035663 255.71923828 152.90209961 C262.50545446 130.58650639 278.69179881 114.11251787 298.82421875 102.92651367 C307.72923154 98.20202634 316.90374196 95.35995534 326.828125 93.5703125 C332.92520077 92.24518492 336.20241713 89.63352037 340.5625 85.2734375 C343.04701931 82.78891819 345.64054003 80.62966571 348.390625 78.4453125 C352.94343007 74.76459403 357.24979911 70.89382602 361.5324707 66.90893555 C365.64323457 63.10646236 369.93829023 59.57767951 374.30078125 56.06640625 C377.12235995 53.7320066 379.82153212 51.30040652 382.515625 48.8203125 C386.96289612 44.72680159 391.56279963 40.89588751 396.265625 37.1015625 C399.09662078 34.75312282 401.80946098 32.31121348 404.515625 29.8203125 C408.90137902 25.78814827 413.41522448 21.98549888 418.0546875 18.25 C420.87206422 15.93811567 423.6226145 13.5668281 426.3659668 11.16845703 C428.7238316 9.11734966 431.10573226 7.09653755 433.50146484 5.08984375 C434.73981214 4.05156482 435.9672277 3.0002599 437.19140625 1.9453125 C442.22368933 -1.8477574 447.49067048 -1.96450909 453.6640625 -1.7265625 C458.63448045 -0.91553859 461.82080928 0.95170863 465.015625 4.8203125 C469.26650502 10.85182699 469.59174063 15.54814133 469.54133606 22.81903076 C469.54954288 23.91861091 469.55774969 25.01819106 469.5662052 26.15109181 C469.58883111 29.8336556 469.58305819 33.51562133 469.57739258 37.19824219 C469.58776776 39.84245099 469.59971148 42.48660998 469.61358643 45.13079834 C469.64381379 51.57928593 469.65290194 58.0276396 469.65505121 64.47619089 C469.65845229 72.04193845 469.68356975 79.60756918 469.70960709 87.17326704 C469.75562887 100.74277709 469.78302614 114.31226056 469.79956055 127.88183594 C469.81546566 140.91443796 469.8425108 153.94694442 469.88354492 166.97949219 C469.88604643 167.77467911 469.88854793 168.56986602 469.89112524 169.38914952 C469.89617747 170.99215652 469.9012319 172.59516351 469.90628855 174.1981705 C469.91003327 175.3856648 469.91003327 175.3856648 469.91385365 176.5971489 C469.91635102 177.38737436 469.9188484 178.17759982 469.92142146 178.9917715 C469.96073652 191.55638503 469.99071176 204.12102356 470.01930121 216.68566547 C470.0295368 221.16673146 470.04072587 225.64779366 470.05267187 230.12885539 C470.10151773 248.67766713 470.09553851 267.22532316 470.02718401 285.77410698 C470.01368093 289.92989875 470.01292281 294.08566033 470.01232529 298.24147034 C470.0103532 305.11997741 469.97341541 311.99766006 469.9154371 318.87591791 C469.89831317 321.44285076 469.89112889 324.0098725 469.89472353 326.57685995 C469.89762227 330.10930659 469.86317135 333.63955375 469.81962585 337.17169189 C469.82877577 338.19463868 469.83792568 339.21758546 469.84735286 340.27153063 C469.68357771 348.41075222 467.0656928 355.3386352 461.54244727 361.45048451 C460.078125 362.73046875 460.078125 362.73046875 457.015625 364.8828125 C456.45439941 365.28725586 455.89317383 365.69169922 455.31494141 366.10839844 C453.56187301 367.36593932 451.79006312 368.59318164 450.015625 369.8203125 C448.91749394 370.60298163 447.82111227 371.38811153 446.7265625 372.17578125 C444.45161223 373.81115356 442.16940588 375.43564194 439.8828125 377.0546875 C435.38570938 380.25377919 430.95244581 383.53839531 426.515625 386.8203125 C420.4747128 391.28543845 414.41362425 395.7157141 408.28857422 400.06469727 C404.32325409 402.88095625 400.38026484 405.72634985 396.44677734 408.58691406 C394.15030751 410.25079714 391.84317334 411.89906157 389.53515625 413.546875 C386.57954824 415.6637038 383.69390419 417.84222096 380.83984375 420.09375 C372.95017085 426.1662457 367.38849497 429.04929244 357.3203125 428.59765625 C352.04657038 427.35714244 348.55535407 424.93787128 345.3709259 420.59655762 C341.70998139 414.51401065 342.35701108 407.83615695 342.44799805 400.95898438 C342.44941019 399.46028694 342.44861328 397.96158606 342.44578552 396.46289062 C342.44435644 392.41360004 342.47366291 388.36505657 342.50865531 384.31593895 C342.54000414 380.0772421 342.54285625 375.83852634 342.54878235 371.59973145 C342.56429584 363.58165847 342.60529027 355.56392812 342.6555298 347.54600573 C342.71150118 338.41424076 342.73892931 329.28245906 342.76400697 320.15056515 C342.81620854 301.37362033 342.904102 282.596994 343.015625 263.8203125 C341.365625 263.8203125 339.715625 263.8203125 338.015625 263.8203125 C338.015625 263.4903125 338.015625 263.1603125 338.015625 262.8203125 C348.905625 262.3253125 348.905625 262.3253125 360.015625 261.8203125 C360.015625 310.9903125 360.015625 360.1603125 360.015625 410.8203125 C366.1881976 407.11676894 372.13064636 403.48927323 377.953125 399.3203125 C378.67056885 398.81040771 379.3880127 398.30050293 380.12719727 397.77514648 C386.41912601 393.28575929 392.64159824 388.70290838 398.85498047 384.10571289 C407.19058187 377.93912949 415.60054453 371.87772734 424.015625 365.8203125 C427.22479964 363.50897755 430.43291679 361.19618198 433.640625 358.8828125 C434.72355835 358.10345337 434.72355835 358.10345337 435.82836914 357.30834961 C436.5218042 356.80827393 437.21523926 356.30819824 437.9296875 355.79296875 C438.8261499 355.14726929 438.8261499 355.14726929 439.74072266 354.48852539 C440.49144043 353.93801514 441.2421582 353.38750488 442.015625 352.8203125 C442.97444108 352.32187932 442.97444108 352.32187932 443.95262718 351.81337678 C447.48699294 349.72760421 449.65376621 348.14726476 450.76064491 344.08829141 C451.0444733 340.53600428 451.06990788 337.05826892 451.015625 333.49478149 C451.02324772 332.12014633 451.03437982 330.74552691 451.04871273 329.37094533 C451.07791094 325.59860633 451.057377 321.82792873 451.02869296 318.05564618 C451.00646997 313.98609806 451.03040319 309.91679052 451.04872131 305.84725952 C451.07413787 298.79830082 451.07033253 291.74984395 451.04666138 284.70088577 C451.01247952 274.50939091 451.02239618 264.31831401 451.04306471 254.12680022 C451.07540087 237.59179008 451.07208928 221.05698693 451.04638672 204.52197266 C451.02149588 188.46008335 451.01337709 172.39832996 451.02783203 156.33642578 C451.02871724 155.34631959 451.02960245 154.3562134 451.03051448 153.33610399 C451.03505885 148.36901585 451.03993314 143.4019281 451.04497147 138.43484044 C451.08634053 97.22993318 451.06986821 56.02519771 451.015625 14.8203125 C449.42239953 16.09090475 447.82973478 17.36220011 446.23730469 18.63378906 C444.90684113 19.69560394 444.90684113 19.69560394 443.54949951 20.77886963 C440.40066269 23.31576341 437.32165307 25.92302586 434.265625 28.5703125 C433.06778904 29.60295821 431.86986988 30.63550741 430.671875 31.66796875 C429.76888672 32.44744873 429.76888672 32.44744873 428.84765625 33.24267578 C427.02269567 34.81422366 425.19212745 36.37895535 423.359375 37.94140625 C418.12634698 42.40493373 412.91590603 46.87817289 407.828125 51.5078125 C404.53620295 54.4994941 401.16971193 57.34555673 397.703125 60.1328125 C392.8905721 64.02222408 388.3696398 68.147745 383.85668945 72.3737793 C379.62067642 76.31821689 375.20927692 79.98511951 370.6953125 83.609375 C366.93247141 86.71399316 363.37611231 90.02762863 359.7890625 93.33203125 C356.14463386 96.60175103 352.35433207 99.66728135 348.5234375 102.71484375 C345.92244885 104.78800826 345.92244885 104.78800826 343.69140625 107.48828125 C340.32851616 110.41915042 337.35411617 110.82843126 333.078125 111.3203125 C313.40270527 114.22577756 296.80644362 123.06752686 283.953125 138.2578125 C277.35229462 147.2160823 272.52734143 156.79370969 270.203125 167.6328125 C268.25039913 175.66807172 264.4527227 178.97857619 258.015625 183.8203125 C256.33428557 185.30384729 254.66744221 186.80397557 253.015625 188.3203125 C250.54060266 190.54860364 248.06490746 192.7761009 245.5859375 195 C244.37550781 196.08667969 244.37550781 196.08667969 243.140625 197.1953125 C241.91279297 198.29746094 241.91279297 198.29746094 240.66015625 199.421875 C238.74926596 201.15494241 236.85191556 202.89766723 234.96484375 204.65625 C234.44325684 205.1404541 233.92166992 205.6246582 233.38427734 206.12353516 C231.91089063 207.4933641 230.4416474 208.86764585 228.97265625 210.2421875 C225.78090509 213.02495602 222.49490514 215.4112468 219.015625 217.8203125 C218.54253906 217.37228271 218.06945312 216.92425293 217.58203125 216.46264648 C215.39468587 214.39282295 213.20516882 212.3253102 211.015625 210.2578125 C210.27183594 209.55333984 209.52804687 208.84886719 208.76171875 208.12304688 C204.51659089 204.11786102 200.21563059 200.20018647 195.80615234 196.37670898 C192.62778325 193.6139461 189.52540933 190.76701456 186.41015625 187.93359375 C184.05195769 185.75676811 184.05195769 185.75676811 181.30859375 184.015625 C178.27620189 181.112381 177.99796214 178.3716791 177.515625 174.3828125 C176.32620157 166.71482743 174.22452968 159.91851999 171.015625 152.8203125 C170.59667969 151.88703125 170.17773438 150.95375 169.74609375 149.9921875 C161.18706239 132.72613 145.36717375 121.1077252 127.6015625 114.5625 C122.66771611 113.03130629 117.94263221 111.80812925 112.77734375 111.5234375 C101.7911193 110.90062732 96.80378569 108.31759391 89.38769531 100.24560547 C87.27208234 98.04792779 84.9090076 96.20569794 82.515625 94.3203125 C77.99623955 90.68402536 73.73414414 86.85068677 69.49169922 82.90185547 C66.30238385 79.95099358 63.03197632 77.16038262 59.640625 74.4453125 C55.24755784 70.91313458 51.11647202 67.18133741 47.015625 63.3203125 C42.05831613 58.65322689 36.97734113 54.25451268 31.66015625 49.99609375 C28.85723252 47.6899955 26.18559225 45.27879719 23.515625 42.8203125 C19.1581164 38.81362027 14.66941868 35.04295249 10.0625 31.328125 C5.64845625 27.69502745 1.35020032 23.93181197 -2.94628906 20.16088867 C-3.55698242 19.6269751 -4.16767578 19.09306152 -4.796875 18.54296875 C-5.61091797 17.82765991 -5.61091797 17.82765991 -6.44140625 17.09790039 C-8.16942899 15.62226649 -8.16942899 15.62226649 -10.984375 13.8203125 C-11.15441539 55.94492252 -11.2560463 98.06920567 -11.26604201 140.19417294 C-11.2672809 145.16834859 -11.26908567 150.14252389 -11.27124023 155.11669922 C-11.27186937 156.60209072 -11.27186937 156.60209072 -11.27251121 158.11749013 C-11.28065004 174.14793164 -11.33462085 190.17790742 -11.40555594 206.20818 C-11.47733105 222.65905603 -11.4997921 239.10946753 -11.47655839 255.56048644 C-11.46377532 265.71055318 -11.48936925 275.85902899 -11.56419363 286.0088342 C-11.61183068 292.97076904 -11.61152753 299.93167849 -11.57372312 306.89366941 C-11.55332351 310.91005739 -11.55387052 314.92352943 -11.61142159 318.93962097 C-12.78191633 335.39147796 -12.78191633 335.39147796 -7.13855553 349.87152481 C-4.08034617 352.57168179 -0.72799207 354.20913593 3.015625 355.8203125 C4.49449283 356.8299733 5.95479385 357.86914325 7.37109375 358.96484375 C8.64662864 359.85675913 9.92397302 360.74609242 11.203125 361.6328125 C12.65684078 362.65019803 14.10994512 363.6684577 15.5625 364.6875 C16.29533203 365.20151367 17.02816406 365.71552734 17.78320312 366.24511719 C21.52743609 368.88704535 25.24100384 371.57103221 28.953125 374.2578125 C29.69908936 374.79768799 30.44505371 375.33756348 31.21362305 375.89379883 C32.72575927 376.98869294 34.23772199 378.08382672 35.74951172 379.17919922 C40.24237985 382.43292251 44.74116241 385.67846369 49.23901367 388.92529297 C53.14091826 391.74245697 57.04075408 394.56242241 60.9375 397.38671875 C61.74574219 397.97195313 62.55398438 398.5571875 63.38671875 399.16015625 C64.92644272 400.27512878 66.46554675 401.39095813 68.00390625 402.5078125 C68.70386719 403.01441406 69.40382813 403.52101563 70.125 404.04296875 C70.73311523 404.48390869 71.34123047 404.92484863 71.96777344 405.37915039 C74.61595457 407.2427905 77.32126965 409.0240756 80.015625 410.8203125 C80.015625 360.9903125 80.015625 311.1603125 80.015625 259.8203125 C83.975625 260.4803125 87.935625 261.1403125 92.015625 261.8203125 C94.76165992 262.07564557 97.51199104 262.29233284 100.265625 262.4453125 C101.54953125 262.52007813 102.8334375 262.59484375 104.15625 262.671875 C105.09984375 262.72085937 106.0434375 262.76984375 107.015625 262.8203125 C107.015625 263.1503125 107.015625 263.4803125 107.015625 263.8203125 C104.375625 264.1503125 101.735625 264.4803125 99.015625 264.8203125 C99.01508023 265.57992248 99.01453547 266.33953245 99.01397419 267.12216091 C98.99899041 285.62675736 98.95647906 304.13110452 98.88353443 322.63556576 C98.84891854 331.58430124 98.82353338 340.53288322 98.82006836 349.48168945 C98.81702372 357.28378796 98.79646629 365.08561285 98.75510043 372.88760573 C98.73381385 377.01669807 98.72114731 381.14540185 98.72947121 385.27454948 C98.73703912 389.1661855 98.72107882 393.05703603 98.68756485 396.94852829 C98.67936433 398.3718376 98.67954288 399.79522551 98.68902779 401.21852684 C98.74511113 410.56442159 97.86146364 417.40944472 91.49476337 424.51850796 C88.06620835 427.82040439 84.14458419 428.37163101 79.515625 428.7578125 C70.1497517 428.41976612 64.13424589 423.35501013 57.015625 417.8203125 C56.04367187 417.10230469 55.07171875 416.38429688 54.0703125 415.64453125 C51.61952434 413.83204028 49.19253942 411.99143895 46.76806641 410.14404297 C42.37750683 406.82757403 37.93040613 403.58629102 33.49707031 400.32739258 C29.40298769 397.31715599 25.31354507 394.30130639 21.23828125 391.265625 C13.24867624 385.32537677 5.19745432 379.52792674 -3.046875 373.9453125 C-6.03070332 371.91037715 -9.0094738 369.86827272 -11.984375 367.8203125 C-13.04140625 367.09328125 -14.0984375 366.36625 -15.1875 365.6171875 C-22.11292527 360.51642517 -27.05015652 354.2789733 -28.53441179 345.60643446 C-28.75151224 341.97727548 -28.77969533 338.39298593 -28.73954773 334.75752258 C-28.7457568 333.36365921 -28.75458237 331.96980549 -28.76577312 330.57597321 C-28.78874187 326.77362385 -28.7746446 322.97220473 -28.75406396 319.1698755 C-28.73836545 315.05871594 -28.75738004 310.94769162 -28.77186584 306.83654785 C-28.7946434 298.79471209 -28.7852456 290.7532248 -28.76436498 282.71139614 C-28.74805756 276.17518337 -28.74388714 269.63906547 -28.74833107 263.1028347 C-28.74896175 262.17133814 -28.74959242 261.23984157 -28.75024221 260.28011784 C-28.7515883 258.38763154 -28.75296788 256.49514526 -28.75438056 254.60265901 C-28.76630552 236.8747463 -28.74228006 219.14702437 -28.70536248 201.41915508 C-28.67445605 186.21320713 -28.67210738 171.00747852 -28.69116211 155.80151367 C-28.71327992 138.13088776 -28.71941449 120.46038472 -28.69883949 102.78975266 C-28.6966766 100.90528279 -28.6945275 99.0208129 -28.69239235 97.136343 C-28.6907928 95.7456411 -28.6907928 95.7456411 -28.68916094 94.32684422 C-28.68269559 87.79819379 -28.68745262 81.26960668 -28.69641685 74.74096107 C-28.70695793 66.78535874 -28.69943365 58.83001358 -28.66896107 50.87445871 C-28.65384555 46.81665087 -28.64665167 42.7592488 -28.66115189 38.70142937 C-28.67419321 34.98488515 -28.66404114 31.26914379 -28.63559315 27.5526922 C-28.62636613 25.57580906 -28.6415875 23.59885816 -28.65775412 21.62201959 C-28.56180551 13.30943874 -27.17101248 8.22681645 -21.42999667 2.18430406 C-15.86000759 -3.07116371 -6.74554708 -2.66643353 0 0 Z " fill="#C4D1E5" transform="translate(291.984375,278.1796875)"/>
<path d="M0 0 C2.71456736 1.31927424 4.91436994 2.61663817 7.1796875 4.6171875 C8.06720703 5.39449219 8.06720703 5.39449219 8.97265625 6.1875 C9.60042969 6.744375 10.22820312 7.30125 10.875 7.875 C12.22622282 9.06028318 13.57779303 10.24517044 14.9296875 11.4296875 C15.6112793 12.0287793 16.29287109 12.62787109 16.99511719 13.24511719 C19.97607693 15.85436446 22.98709425 18.42778664 26 21 C45.32189924 37.53693364 45.32189924 37.53693364 53.25 44.75 C56.52149835 47.71967972 59.86969572 50.54339555 63.3125 53.3125 C68.12745744 57.20385488 72.65087171 61.33129144 77.16552734 65.56005859 C80.49102233 68.65736226 83.88692543 71.59599759 87.4375 74.4375 C92.60282984 78.57735995 97.42596135 83.02422986 102.23022461 87.57202148 C108.46048968 93.66571884 108.46048968 93.66571884 116.75 95.6875 C117.73484375 95.75324219 118.7196875 95.81898438 119.734375 95.88671875 C120.48203125 95.92410156 121.2296875 95.96148437 122 96 C122 96.33 122 96.66 122 97 C121.41734375 97.00410889 120.8346875 97.00821777 120.234375 97.01245117 C95.89018549 97.31149045 75.60729787 103.30448922 58 121 C44.38776852 136.08102849 36.99338175 156.2317012 37.67578125 176.5625 C39.71439578 198.17672634 47.8284804 217.329975 64.640625 231.37011719 C71.53801209 236.74433129 78.94710892 240.65247099 87 244 C88.98 244.99 88.98 244.99 91 246 C91 295.83 91 345.66 91 397 C87.06434801 395.03217401 83.54360288 392.74408098 79.9375 390.25 C79.23995605 389.76901855 78.54241211 389.28803711 77.82373047 388.79248047 C70.71318995 383.85578313 63.76155515 378.70961477 56.80859375 373.5546875 C46.95644952 366.25488122 36.98244501 359.12016278 27 352 C21.40870106 348.01107035 15.82524181 344.01134672 10.25 340 C9.46238281 339.43539063 8.67476563 338.87078125 7.86328125 338.2890625 C6.76306641 337.49628906 6.76306641 337.49628906 5.640625 336.6875 C4.98610352 336.21699219 4.33158203 335.74648438 3.65722656 335.26171875 C2 334 2 334 0 332 C-0.24839699 329.62280929 -0.24839699 329.62280929 -0.24609566 326.5689373 C-0.25007775 325.40846787 -0.25405985 324.24799845 -0.25816262 323.05236328 C-0.25233693 321.76639413 -0.24651125 320.48042497 -0.24050903 319.15548706 C-0.24138047 317.78432642 -0.2431303 316.4131661 -0.24568737 315.04200757 C-0.25017711 311.26116149 -0.24213502 307.4804279 -0.23213124 303.69959617 C-0.22352236 299.62733691 -0.22641508 295.55508439 -0.22793579 291.4828186 C-0.22898627 284.42302819 -0.22269269 277.36327464 -0.21146011 270.3034935 C-0.1952301 260.09614553 -0.18999967 249.88881546 -0.18748413 239.68145598 C-0.18310309 223.12209986 -0.16978293 206.56276341 -0.15087891 190.00341797 C-0.13253067 173.91422626 -0.118369 157.82503989 -0.10986328 141.73583984 C-0.10933783 140.74468276 -0.10881239 139.75352567 -0.10827102 138.73233353 C-0.10566101 133.76016317 -0.10313358 128.78799278 -0.10064721 123.81582236 C-0.07990199 82.54386789 -0.04466537 41.27193507 0 0 Z " fill="#66AA5D" transform="translate(281,292)"/>
<path d="M0 0 C0.66 0 1.32 0 2 0 C2.29760967 42.12437954 2.52665242 84.2486377 2.66384928 126.37386044 C2.68010831 131.34803759 2.69693451 136.32221266 2.71411133 141.29638672 C2.71922638 142.78177822 2.71922638 142.78177822 2.72444477 144.29717763 C2.78099949 160.32772969 2.88349104 176.35767518 3.00298635 192.3878675 C3.12459298 208.83859846 3.19677153 225.28901195 3.22315043 241.74017394 C3.2409814 251.8903706 3.29727464 262.03885287 3.40291407 272.1885217 C3.47167882 279.1503235 3.49239187 286.11124022 3.47551791 293.07335691 C3.46719636 297.08984959 3.479864 301.10334945 3.54967117 305.11930847 C3.96932731 330.4903676 3.96932731 330.4903676 -0.83252907 336.04352188 C-3.89362791 338.7465149 -7.25796492 340.37704904 -11 342 C-12.55395696 343.08023134 -14.08704651 344.19281095 -15.57421875 345.36328125 C-16.94383056 346.34841775 -18.31493019 347.33148902 -19.6875 348.3125 C-21.23439095 349.42445697 -22.78126548 350.5364368 -24.328125 351.6484375 C-25.10220703 352.20370117 -25.87628906 352.75896484 -26.67382812 353.33105469 C-30.43237315 356.02767662 -34.18578858 358.73138121 -37.9375 361.4375 C-39.04460327 362.23546997 -39.04460327 362.23546997 -40.17407227 363.04956055 C-44.87774598 366.44662989 -49.5517981 369.88136831 -54.21264648 373.33691406 C-61.03090623 378.39074813 -67.88089683 383.37895243 -74.875 388.1875 C-75.52291504 388.63303223 -76.17083008 389.07856445 -76.83837891 389.53759766 C-86.31707173 396 -86.31707173 396 -89 396 C-89 346.83 -89 297.66 -89 247 C-89.66 246.67 -90.32 246.34 -91 246 C-90.15179687 245.79246094 -89.30359375 245.58492187 -88.4296875 245.37109375 C-68.19475484 240.0566444 -51.36822939 229.34335497 -40.3125 211.25 C-29.88939989 192.49793862 -26.8953209 171.9740699 -32.609375 151.2421875 C-38.83763237 131.04218264 -51.9215455 114.6784548 -70.53125 104.72265625 C-75.23764756 102.38535746 -79.97599527 100.52608865 -85 99 C-86.01320313 98.649375 -87.02640625 98.29875 -88.0703125 97.9375 C-93.24524569 96.47298899 -98.59525072 96.53417316 -103.9375 96.375 C-105.53561523 96.31699219 -105.53561523 96.31699219 -107.16601562 96.2578125 C-109.77717734 96.16413854 -112.38834304 96.07841665 -115 96 C-115 95.67 -115 95.34 -115 95 C-113.98421875 94.95875 -112.9684375 94.9175 -111.921875 94.875 C-107.08106599 94.17442061 -104.57084634 91.38131985 -101.25 88 C-100.02204248 86.8034071 -98.79155006 85.60941029 -97.55859375 84.41796875 C-96.95644043 83.83192871 -96.35428711 83.24588867 -95.73388672 82.64208984 C-93.36386433 80.39754315 -90.86167347 78.34964436 -88.3125 76.3125 C-84.58390445 73.32634807 -81.01434121 70.23597755 -77.5 67 C-73.9644923 63.74492917 -70.37221213 60.63363119 -66.625 57.625 C-61.18613395 53.23655873 -56.09271096 48.53553588 -50.984375 43.7734375 C-47.39602118 40.428627 -43.72300106 37.19397782 -40 34 C-39.5148291 33.58314941 -39.0296582 33.16629883 -38.52978516 32.73681641 C-35.59679316 30.21719324 -32.66093619 27.70095428 -29.72265625 25.1875 C-27.26836295 23.08768 -24.8179562 20.98347363 -22.37109375 18.875 C-15.98570525 13.37717266 -9.55915114 7.94938523 -3.01171875 2.64453125 C-1.12373351 1.15704175 -1.12373351 1.15704175 0 0 Z " fill="#66AB5E" transform="translate(741,293)"/>
<path d="M0 0 C1.71123047 0.77923828 1.71123047 0.77923828 3.45703125 1.57421875 C22.29181443 10.98064714 35.96579431 26.68054537 43.19140625 46.3984375 C50.06946285 68.52783699 47.7428319 89.54721518 37 110 C26.54211507 127.47184268 9.59760051 139.8654795 -10 145 C-10.66539795 145.17587646 -11.3307959 145.35175293 -12.01635742 145.53295898 C-17.6202431 146.91050176 -22.92635786 147.35138095 -28.6875 147.3125 C-29.99460937 147.30512817 -29.99460937 147.30512817 -31.328125 147.29760742 C-51.69170721 146.93209762 -71.71091734 138.66440566 -86 124 C-101.23709845 107.89221021 -106.63468408 87.68205123 -106.26953125 66.015625 C-105.5677074 47.99638399 -98.10123415 31.26433846 -86 18 C-85.48308594 17.3915625 -84.96617187 16.783125 -84.43359375 16.15625 C-64.27005467 -6.07923169 -26.84823092 -12.31713265 0 0 Z " fill="#2D2C68" transform="translate(665,394)"/>
<path d="M0 0 C1.69003384 3.38006768 1.00678268 7.22416037 0.9375 10.9375 C0.76781633 32.59438896 7.79656389 51.30336356 23 67 C30.02369178 73.11408149 37.69601469 77.83166092 46 82 C42.37657793 86.43869204 38.67770289 90.28876256 34.3203125 94 C31.57953544 96.36242063 28.91189057 98.79972416 26.25 101.25 C25.74291504 101.71599609 25.23583008 102.18199219 24.71337891 102.66210938 C23.14152691 104.10728656 21.57061717 105.55348098 20 107 C8.42325368 117.66204044 8.42325368 117.66204044 4.125 121.375 C-0.31000295 125.21619502 -4.57512168 129.23769045 -8.86450195 133.23950195 C-12.48280969 136.60917547 -16.14368198 139.91018448 -19.890625 143.13671875 C-22.17347285 145.15323435 -24.39925436 147.22348247 -26.62597656 149.30151367 C-32.88549268 155.14149361 -39.29057062 160.6754829 -46 166 C-51.18191238 163.3326895 -55.03098762 159.37731252 -59.1875 155.375 C-60.71279476 153.9223924 -62.23883211 152.47056413 -63.765625 151.01953125 C-64.49716797 150.3229541 -65.22871094 149.62637695 -65.98242188 148.90869141 C-69.91406637 145.18923392 -73.95466209 141.59507421 -78 138 C-83.40517502 133.15731474 -88.78359874 128.2878168 -94.125 123.375 C-98.01673318 119.79671143 -101.94680925 116.27168512 -105.94140625 112.80859375 C-108.4895665 110.5698875 -110.99410593 108.28589788 -113.5 106 C-117.27910198 102.55358375 -121.08987094 99.15282962 -124.94921875 95.796875 C-135.07692308 86.92307692 -135.07692308 86.92307692 -139 83 C-137.90945313 82.5978125 -137.90945313 82.5978125 -136.796875 82.1875 C-119.06286465 75.27578315 -104.44895924 63.26848687 -96 46 C-92.63952829 37.83247317 -89.15418805 28.76468899 -88.68359375 19.890625 C-88.62075195 18.75947266 -88.62075195 18.75947266 -88.55664062 17.60546875 C-88.51732422 16.82816406 -88.47800781 16.05085938 -88.4375 15.25 C-88.37272461 14.06083984 -88.37272461 14.06083984 -88.30664062 12.84765625 C-88.20097009 10.89862185 -88.10002034 8.94933252 -88 7 C-81.54242208 11.55829029 -75.86199771 16.72796357 -70.1015625 22.11328125 C-67.14387252 24.87800108 -64.1169125 27.55098555 -61.0546875 30.19921875 C-56.64337751 34.06540488 -52.33041542 38.04371973 -48 42 C-43.17970588 38.58197326 -38.87011169 35.00700982 -34.7578125 30.765625 C-32.40520844 28.40256492 -29.89189511 26.2579952 -27.3671875 24.08203125 C-24.36277687 21.43953808 -21.4325994 18.72166024 -18.5 16 C-6.04199896 4.45547845 -6.04199896 4.45547845 0 0 Z " fill="#5AA565" transform="translate(559,453)"/>
<path d="M0 0 C3.58563298 2.16438468 6.58462502 4.66568485 9.703125 7.4453125 C10.9404779 8.52840524 12.17876935 9.61042664 13.41796875 10.69140625 C14.02624512 11.22362793 14.63452148 11.75584961 15.26123047 12.30419922 C17.71835416 14.42759723 20.23799543 16.46916959 22.765625 18.5078125 C27.20397539 22.1119355 31.46952922 25.8690697 35.69921875 29.71484375 C40.15174407 33.76191145 44.69833555 37.69795021 49.2734375 41.60546875 C50.47919176 42.63538729 51.68492023 43.66533603 52.890625 44.6953125 C53.8034021 45.47479248 53.8034021 45.47479248 54.73461914 46.27001953 C58.27186358 49.29923783 61.75955077 52.37179833 65.203125 55.5078125 C68.5164558 58.51845729 71.90504429 61.38596428 75.390625 64.1953125 C80.52743087 68.35125727 85.37916405 72.75418097 90.22265625 77.2421875 C93.75929324 80.50677549 97.35403012 83.69674789 101.015625 86.8203125 C101.91796875 87.68914062 102.8203125 88.55796875 103.75 89.453125 C107.16866577 92.28694904 110.56817196 92.60501218 114.890625 92.8203125 C136.50003476 94.73177899 154.88127386 104.45312519 170.015625 119.8203125 C171.11777344 120.81804687 171.11777344 120.81804687 172.2421875 121.8359375 C181.87408844 130.6868735 189.93446951 144.22922982 191.6796875 157.3046875 C193.51394944 170.38469066 198.05451422 176.62643339 208.47509766 184.72314453 C210.0372465 185.8955394 210.0372465 185.8955394 212.015625 186.8203125 C212.015625 187.4803125 212.015625 188.1403125 212.015625 188.8203125 C212.881875 189.2534375 212.881875 189.2534375 213.765625 189.6953125 C215.84895833 190.73697917 217.93229167 191.77864583 220.015625 192.8203125 C220.75425781 192.13066406 221.49289062 191.44101562 222.25390625 190.73046875 C227.28752808 186.05895993 232.33792951 181.48898878 237.703125 177.1953125 C239.4746213 175.73778457 241.24548236 174.27948413 243.015625 172.8203125 C243.83289063 172.18480469 244.65015625 171.54929687 245.4921875 170.89453125 C251.58717983 165.64549939 253.48859088 160.37035663 255.71923828 152.90209961 C262.50545446 130.58650639 278.69179881 114.11251787 298.82421875 102.92651367 C307.72923154 98.20202634 316.90374196 95.35995534 326.828125 93.5703125 C332.92520077 92.24518492 336.20241713 89.63352037 340.5625 85.2734375 C343.04701931 82.78891819 345.64054003 80.62966571 348.390625 78.4453125 C352.94343007 74.76459403 357.24979911 70.89382602 361.5324707 66.90893555 C365.64323457 63.10646236 369.93829023 59.57767951 374.30078125 56.06640625 C377.12235995 53.7320066 379.82153212 51.30040652 382.515625 48.8203125 C386.96289612 44.72680159 391.56279963 40.89588751 396.265625 37.1015625 C399.09662078 34.75312282 401.80946098 32.31121348 404.515625 29.8203125 C408.90137902 25.78814827 413.41522448 21.98549888 418.0546875 18.25 C420.87206422 15.93811567 423.6226145 13.5668281 426.3659668 11.16845703 C428.7238316 9.11734966 431.10573226 7.09653755 433.50146484 5.08984375 C434.73981214 4.05156482 435.9672277 3.0002599 437.19140625 1.9453125 C442.22368933 -1.8477574 447.49067048 -1.96450909 453.6640625 -1.7265625 C458.63448045 -0.91553859 461.82080928 0.95170863 465.015625 4.8203125 C469.26650502 10.85182699 469.59174063 15.54814133 469.54133606 22.81903076 C469.54954288 23.91861091 469.55774969 25.01819106 469.5662052 26.15109181 C469.58883111 29.8336556 469.58305819 33.51562133 469.57739258 37.19824219 C469.58776776 39.84245099 469.59971148 42.48660998 469.61358643 45.13079834 C469.64381379 51.57928593 469.65290194 58.0276396 469.65505121 64.47619089 C469.65845229 72.04193845 469.68356975 79.60756918 469.70960709 87.17326704 C469.75562887 100.74277709 469.78302614 114.31226056 469.79956055 127.88183594 C469.81546566 140.91443796 469.8425108 153.94694442 469.88354492 166.97949219 C469.88604643 167.77467911 469.88854793 168.56986602 469.89112524 169.38914952 C469.89617747 170.99215652 469.9012319 172.59516351 469.90628855 174.1981705 C469.91003327 175.3856648 469.91003327 175.3856648 469.91385365 176.5971489 C469.91635102 177.38737436 469.9188484 178.17759982 469.92142146 178.9917715 C469.96073652 191.55638503 469.99071176 204.12102356 470.01930121 216.68566547 C470.0295368 221.16673146 470.04072587 225.64779366 470.05267187 230.12885539 C470.10151773 248.67766713 470.09553851 267.22532316 470.02718401 285.77410698 C470.01368093 289.92989875 470.01292281 294.08566033 470.01232529 298.24147034 C470.0103532 305.11997741 469.97341541 311.99766006 469.9154371 318.87591791 C469.89831317 321.44285076 469.89112889 324.0098725 469.89472353 326.57685995 C469.89762227 330.10930659 469.86317135 333.63955375 469.81962585 337.17169189 C469.82877577 338.19463868 469.83792568 339.21758546 469.84735286 340.27153063 C469.68357771 348.41075222 467.0656928 355.3386352 461.54244727 361.45048451 C460.078125 362.73046875 460.078125 362.73046875 457.015625 364.8828125 C456.45439941 365.28725586 455.89317383 365.69169922 455.31494141 366.10839844 C453.56187301 367.36593932 451.79006312 368.59318164 450.015625 369.8203125 C448.91749394 370.60298163 447.82111227 371.38811153 446.7265625 372.17578125 C444.45161223 373.81115356 442.16940588 375.43564194 439.8828125 377.0546875 C435.38570938 380.25377919 430.95244581 383.53839531 426.515625 386.8203125 C420.4747128 391.28543845 414.41362425 395.7157141 408.28857422 400.06469727 C404.32325409 402.88095625 400.38026484 405.72634985 396.44677734 408.58691406 C394.15030751 410.25079714 391.84317334 411.89906157 389.53515625 413.546875 C386.57954824 415.6637038 383.69390419 417.84222096 380.83984375 420.09375 C372.95017085 426.1662457 367.38849497 429.04929244 357.3203125 428.59765625 C352.04657038 427.35714244 348.55535407 424.93787128 345.3709259 420.59655762 C341.70998139 414.51401065 342.35701108 407.83615695 342.44799805 400.95898438 C342.44941019 399.46028694 342.44861328 397.96158606 342.44578552 396.46289062 C342.44435644 392.41360004 342.47366291 388.36505657 342.50865531 384.31593895 C342.54000414 380.0772421 342.54285625 375.83852634 342.54878235 371.59973145 C342.56429584 363.58165847 342.60529027 355.56392812 342.6555298 347.54600573 C342.71150118 338.41424076 342.73892931 329.28245906 342.76400697 320.15056515 C342.81620854 301.37362033 342.904102 282.596994 343.015625 263.8203125 C341.365625 263.8203125 339.715625 263.8203125 338.015625 263.8203125 C338.015625 263.4903125 338.015625 263.1603125 338.015625 262.8203125 C342.305625 262.8203125 346.595625 262.8203125 351.015625 262.8203125 C350.685625 313.3103125 350.355625 363.8003125 350.015625 415.8203125 C350.675625 415.8203125 351.335625 415.8203125 352.015625 415.8203125 C352.49 416.6453125 352.964375 417.4703125 353.453125 418.3203125 C356.42042629 421.21524059 357.14665397 421.23450569 361.140625 421.33203125 C367.43185497 421.17453175 370.81368606 419.02908683 375.578125 415.1328125 C377.14267622 413.92896854 378.70779654 412.72586388 380.2734375 411.5234375 C381.06008789 410.90533203 381.84673828 410.28722656 382.65722656 409.65039062 C386.3463607 406.78768364 390.15141346 404.09300968 393.953125 401.3828125 C400.25622384 396.84287127 406.51834461 392.24917124 412.765625 387.6328125 C418.17586406 383.63536204 423.59757859 379.65841764 429.078125 375.7578125 C429.62049805 375.37117432 430.16287109 374.98453613 430.72167969 374.58618164 C433.23360728 372.79681816 435.74733734 371.01009967 438.26513672 369.22900391 C440.68577463 367.51473382 443.10092512 365.79293364 445.515625 364.0703125 C446.26980713 363.53913818 447.02398926 363.00796387 447.80102539 362.46069336 C455.94079997 356.8930951 455.94079997 356.8930951 461.015625 348.8203125 C461.11095599 346.94946181 461.14656089 345.07535676 461.14984608 343.20208168 C461.15653284 341.43689074 461.15653284 341.43689074 461.16335469 339.63603938 C461.16317033 338.33693892 461.16298597 337.03783847 461.16279602 335.69937134 C461.16609478 334.31028686 461.16982037 332.92120335 461.1739375 331.53212106 C461.1839639 327.70622035 461.18767531 323.88033532 461.19032681 320.05442333 C461.19422785 315.93163574 461.20380619 311.80886059 461.21253967 307.68608093 C461.23230762 297.72652835 461.24236978 287.76697474 461.25126746 277.80740744 C461.25564899 273.11994998 461.26101608 268.43249365 461.26625633 263.74503708 C461.28326738 248.16834307 461.29776303 232.59164977 461.30500507 217.01494789 C461.30691503 212.97220483 461.30883536 208.92946178 461.31079102 204.88671875 C461.31127476 203.88188963 461.3117585 202.87706051 461.3122569 201.84178202 C461.32056274 185.55290205 461.34590955 169.26409539 461.37837169 152.97524746 C461.41141059 136.26111344 461.42945088 119.54701672 461.43264931 102.83284986 C461.43481713 93.444618 461.44360564 84.0564931 461.46911049 74.668293 C461.49077407 66.67551308 461.49888932 58.6828661 461.48914371 50.69006015 C461.48458662 46.61042913 461.48656658 42.53107265 461.50590515 38.45147896 C461.52344942 34.71825983 461.522611 30.98551732 461.50700786 27.25229375 C461.50348468 25.25886533 461.51972295 23.26543242 461.53661233 21.27207243 C461.52374099 19.49905825 461.52374099 19.49905825 461.51060963 17.6902256 C461.51207484 16.15992382 461.51207484 16.15992382 461.51356965 14.59870684 C460.88135689 11.07113332 459.46403772 9.38747896 457.015625 6.8203125 C453.29633714 4.96066857 449.07442468 5.38152335 445.015625 5.8203125 C440.02531772 7.57934802 436.643495 11.09166834 433.015625 14.8203125 C432.025625 15.1503125 431.035625 15.4803125 430.015625 15.8203125 C430.015625 16.4803125 430.015625 17.1403125 430.015625 17.8203125 C428.72265625 19.16015625 428.72265625 19.16015625 426.828125 20.7578125 C425.73371094 21.68787109 425.73371094 21.68787109 424.6171875 22.63671875 C423.75867188 23.35730469 422.90015625 24.07789063 422.015625 24.8203125 C421.01273438 25.67496094 420.00984375 26.52960938 418.9765625 27.41015625 C413.87249014 31.75706923 408.73995437 36.05546873 403.515625 40.2578125 C398.7742032 44.11021771 394.31238656 48.20169124 389.85595703 52.37426758 C385.62040228 56.31877723 381.2090448 59.98530588 376.6953125 63.609375 C373.88309185 65.929662 371.19765237 68.35102384 368.515625 70.8203125 C364.9801173 74.07538333 361.38783713 77.18668131 357.640625 80.1953125 C352.66793158 84.20069524 347.98551483 88.45777922 343.34228516 92.83544922 C339.61243198 96.33890066 336.75598601 98.84422292 331.69140625 99.828125 C319.69618239 102.31927575 309.64668862 105.75229884 299.015625 111.8203125 C298.07332031 112.325625 297.13101562 112.8309375 296.16015625 113.3515625 C279.76387659 122.50297441 266.89619537 139.27872863 261.7265625 157.2890625 C261.25953466 158.95188692 260.80595882 160.61855965 260.3671875 162.2890625 C257.69482111 170.65012962 251.57751155 175.44484754 245.015625 180.8203125 C244.10039063 181.57054687 243.18515625 182.32078125 242.2421875 183.09375 C240.46382102 184.53834682 238.67860738 185.9745544 236.88671875 187.40234375 C234.70244976 189.24188458 232.65680092 191.0958977 230.61328125 193.08203125 C230.03570068 193.63898682 229.45812012 194.19594238 228.86303711 194.76977539 C227.73532729 195.86679488 226.61963349 196.97633664 225.51782227 198.09936523 C221.72365322 201.77929867 221.72365322 201.77929867 218.453125 201.96875 C215.21393244 200.44259197 213.3291385 198.44080461 210.890625 195.8203125 C206.41992382 191.12894947 201.73466533 186.98785237 196.62109375 182.98828125 C195.33138672 181.91513672 195.33138672 181.91513672 194.015625 180.8203125 C193.22007202 180.16881226 193.22007202 180.16881226 192.40844727 179.50415039 C188.19864812 175.75417627 187.10278923 172.47687625 186.578125 166.8828125 C185.37489185 157.87869963 182.16846759 150.81622854 178.015625 142.8203125 C177.43207983 141.42456772 176.84870285 140.02875257 176.265625 138.6328125 C167.98275666 122.35146616 148.30523278 110.24707182 132.015625 103.8203125 C131.25958984 103.48346436 130.50355469 103.14661621 129.72460938 102.79956055 C126.90392935 101.77993657 124.6581107 101.50010611 121.671875 101.36328125 C120.67285156 101.30205078 119.67382812 101.24082031 118.64453125 101.17773438 C116.55919556 101.06448581 114.47319284 100.96291374 112.38671875 100.87304688 C104.72327957 100.37368729 104.72327957 100.37368729 101.0234375 97.48046875 C100.36085938 96.60261719 99.69828125 95.72476563 99.015625 94.8203125 C93.93368646 89.54538895 88.65177852 84.82391084 82.9375 80.23828125 C79.86339004 77.69433196 76.93391122 75.03911018 74.015625 72.3203125 C70.28255592 68.8459175 66.49189194 65.51960774 62.515625 62.3203125 C58.53933074 59.12099528 54.74894202 55.79446305 51.015625 52.3203125 C46.40694285 48.0319764 41.64097265 44.01814969 36.734375 40.0703125 C33.88905122 37.71556179 31.1691621 35.2602287 28.453125 32.7578125 C24.31849697 28.95114363 20.05497045 25.42771564 15.62890625 21.96875 C12.02950133 19.00959798 8.64627951 15.83078399 5.30102539 12.58813477 C-0.24554123 7.33784084 -5.08126875 5.18570269 -12.640625 5.390625 C-16.26394972 6.0549012 -17.85396244 7.9339471 -19.984375 10.8203125 C-21.28782949 13.42722149 -21.11218729 15.32656531 -21.11580276 18.24743938 C-21.11964391 19.40707532 -21.12348505 20.56671125 -21.1274426 21.76148766 C-21.12657612 23.04657292 -21.12570963 24.33165819 -21.12481689 25.65568542 C-21.12739916 27.02598206 -21.13041193 28.39627794 -21.1338203 29.76657277 C-21.14191005 33.54526763 -21.14368097 37.32394351 -21.14441776 41.10264599 C-21.14626493 45.17299927 -21.15381063 49.24334262 -21.16055298 53.31369019 C-21.17415157 62.22078113 -21.1801636 71.12786758 -21.18456364 80.03496718 C-21.18732389 85.59468097 -21.19156088 91.154393 -21.19606781 96.71410561 C-21.20826324 112.10117452 -21.21856151 127.48824203 -21.2219429 142.87531567 C-21.22216247 143.86069904 -21.22238203 144.84608241 -21.22260825 145.86132588 C-21.22282653 146.84909914 -21.22304481 147.83687241 -21.2232697 148.8545782 C-21.22371317 150.85625851 -21.22415973 152.85793883 -21.22460938 154.85961914 C-21.2248308 155.85252668 -21.22505223 156.84543423 -21.22528037 157.86842988 C-21.229228 173.95554579 -21.24667971 190.0426164 -21.2699689 206.12971481 C-21.2936755 222.6381649 -21.30614446 239.14659225 -21.30731082 255.65505964 C-21.30822805 264.92709494 -21.31399235 274.19907125 -21.33213043 283.47109032 C-21.3475222 291.36720515 -21.35265741 299.26324275 -21.34439233 307.15936973 C-21.34048233 311.1885642 -21.34143235 315.2176031 -21.35544968 319.24677849 C-21.36816792 322.93628254 -21.3670095 326.62551382 -21.35485896 330.31501738 C-21.35197036 332.28016254 -21.36385359 334.24531232 -21.37628102 336.21042031 C-21.334739 343.6028985 -21.11293255 349.23750631 -16.07421875 355.0078125 C-11.53620133 358.82930085 -6.92204827 362.38887678 -2.01953125 365.73046875 C1.8698727 368.40850107 5.69163947 371.17498219 9.515625 373.9453125 C11.071595 375.07164164 12.62758493 376.19794324 14.18359375 377.32421875 C14.97427246 377.89672363 15.76495117 378.46922852 16.57958984 379.05908203 C19.05174831 380.84642931 21.52730906 382.62896544 24.00390625 384.41015625 C25.21626953 385.28293213 25.21626953 385.28293213 26.453125 386.17333984 C27.99800279 387.28530883 29.54354087 388.39636124 31.08984375 389.50634766 C34.81335701 392.18901621 38.43421878 394.9493641 42.015625 397.8203125 C44.21563787 399.41735888 46.42130481 401.00073658 48.640625 402.5703125 C49.88175335 403.45278343 51.12263566 404.33560049 52.36328125 405.21875 C52.97703613 405.65541992 53.59079102 406.09208984 54.22314453 406.54199219 C56.8496981 408.41513771 59.46573167 410.30247934 62.078125 412.1953125 C62.91472656 412.80117188 63.75132812 413.40703125 64.61328125 414.03125 C66.33960819 415.31687234 68.03433532 416.64533479 69.70703125 418 C73.86388805 421.27765697 77.79804534 421.18645844 83.015625 420.8203125 C85.90862053 419.91793284 85.90862053 419.91793284 88.015625 417.8203125 C90.85677342 410.94460666 90.28210739 403.66845479 90.24267578 396.34790039 C90.24211106 394.87890633 90.24242941 393.4099117 90.24356079 391.94091797 C90.24413293 387.96826878 90.23240113 383.99574118 90.21841288 380.02312016 C90.20588237 375.86579717 90.20473319 371.70847117 90.20236206 367.5511322 C90.1961541 359.6854522 90.17975256 351.81982801 90.15966308 343.95417255 C90.13728277 334.99651015 90.12630529 326.03884503 90.11627221 317.08116162 C90.09538571 298.6608461 90.05981862 280.24058584 90.015625 261.8203125 C95.625625 262.1503125 101.235625 262.4803125 107.015625 262.8203125 C107.015625 263.1503125 107.015625 263.4803125 107.015625 263.8203125 C104.375625 264.1503125 101.735625 264.4803125 99.015625 264.8203125 C99.01508023 265.57992248 99.01453547 266.33953245 99.01397419 267.12216091 C98.99899041 285.62675736 98.95647906 304.13110452 98.88353443 322.63556576 C98.84891854 331.58430124 98.82353338 340.53288322 98.82006836 349.48168945 C98.81702372 357.28378796 98.79646629 365.08561285 98.75510043 372.88760573 C98.73381385 377.01669807 98.72114731 381.14540185 98.72947121 385.27454948 C98.73703912 389.1661855 98.72107882 393.05703603 98.68756485 396.94852829 C98.67936433 398.3718376 98.67954288 399.79522551 98.68902779 401.21852684 C98.74511113 410.56442159 97.86146364 417.40944472 91.49476337 424.51850796 C88.06620835 427.82040439 84.14458419 428.37163101 79.515625 428.7578125 C70.1497517 428.41976612 64.13424589 423.35501013 57.015625 417.8203125 C56.04367187 417.10230469 55.07171875 416.38429688 54.0703125 415.64453125 C51.61952434 413.83204028 49.19253942 411.99143895 46.76806641 410.14404297 C42.37750683 406.82757403 37.93040613 403.58629102 33.49707031 400.32739258 C29.40298769 397.31715599 25.31354507 394.30130639 21.23828125 391.265625 C13.24867624 385.32537677 5.19745432 379.52792674 -3.046875 373.9453125 C-6.03070332 371.91037715 -9.0094738 369.86827272 -11.984375 367.8203125 C-13.04140625 367.09328125 -14.0984375 366.36625 -15.1875 365.6171875 C-22.11292527 360.51642517 -27.05015652 354.2789733 -28.53441179 345.60643446 C-28.75151224 341.97727548 -28.77969533 338.39298593 -28.73954773 334.75752258 C-28.7457568 333.36365921 -28.75458237 331.96980549 -28.76577312 330.57597321 C-28.78874187 326.77362385 -28.7746446 322.97220473 -28.75406396 319.1698755 C-28.73836545 315.05871594 -28.75738004 310.94769162 -28.77186584 306.83654785 C-28.7946434 298.79471209 -28.7852456 290.7532248 -28.76436498 282.71139614 C-28.74805756 276.17518337 -28.74388714 269.63906547 -28.74833107 263.1028347 C-28.74896175 262.17133814 -28.74959242 261.23984157 -28.75024221 260.28011784 C-28.7515883 258.38763154 -28.75296788 256.49514526 -28.75438056 254.60265901 C-28.76630552 236.8747463 -28.74228006 219.14702437 -28.70536248 201.41915508 C-28.67445605 186.21320713 -28.67210738 171.00747852 -28.69116211 155.80151367 C-28.71327992 138.13088776 -28.71941449 120.46038472 -28.69883949 102.78975266 C-28.6966766 100.90528279 -28.6945275 99.0208129 -28.69239235 97.136343 C-28.6907928 95.7456411 -28.6907928 95.7456411 -28.68916094 94.32684422 C-28.68269559 87.79819379 -28.68745262 81.26960668 -28.69641685 74.74096107 C-28.70695793 66.78535874 -28.69943365 58.83001358 -28.66896107 50.87445871 C-28.65384555 46.81665087 -28.64665167 42.7592488 -28.66115189 38.70142937 C-28.67419321 34.98488515 -28.66404114 31.26914379 -28.63559315 27.5526922 C-28.62636613 25.57580906 -28.6415875 23.59885816 -28.65775412 21.62201959 C-28.56180551 13.30943874 -27.17101248 8.22681645 -21.42999667 2.18430406 C-15.86000759 -3.07116371 -6.74554708 -2.66643353 0 0 Z " fill="#AA86D1" transform="translate(291.984375,278.1796875)"/>
<path d="M0 0 C0.76570312 0.24492187 1.53140625 0.48984375 2.3203125 0.7421875 C15.69030773 5.47826731 25.75801117 14.8306279 31.875 27.5625 C37.18395197 40.37906081 37.89565364 53.79029085 33.25390625 67.00390625 C27.08608187 81.74135579 17.17153636 90.05873998 2.79882812 96.26513672 C-6.98043498 100.26019399 -19.02349848 100.54055653 -29 97 C-43.43850733 90.92505694 -53.97617206 82.75789519 -60.28515625 67.9921875 C-61.27032461 65.34388546 -62.18455703 62.70499093 -63 60 C-63.19207031 59.39027344 -63.38414062 58.78054688 -63.58203125 58.15234375 C-66.22767752 44.52850173 -62.98004274 31.77441039 -55.546875 20.23828125 C-55.03640625 19.49964844 -54.5259375 18.76101563 -54 18 C-53.57203125 17.37480469 -53.1440625 16.74960937 -52.703125 16.10546875 C-40.94845675 0.78982747 -18.19859984 -6.35854693 0 0 Z " fill="#BEDC6D" transform="translate(649,416)"/>
<path d="M0 0 C0.63292969 0.43957031 1.26585937 0.87914062 1.91796875 1.33203125 C10.66146187 8.02958559 16.52402494 19.45256441 19 30 C20.89065742 45.09627144 18.65622276 58.89714888 9.75 71.5 C1.23699052 81.96566347 -10.36778925 89.48530992 -24 91 C-39.92929042 92.16468378 -52.26926627 88.04646034 -64.75 78.1875 C-72.35535869 71.27840654 -79.22788725 59.25476494 -80.19287109 48.93798828 C-80.81631424 30.61631665 -77.81386311 17.96327589 -65.19921875 4.0078125 C-47.23541389 -13.3020637 -20.01736955 -14.52814572 0 0 Z " fill="#BDDC6B" transform="translate(425,424)"/>
<path d="M0 0 C7.27693808 -0.20328799 14.55314126 -0.34312369 21.83227539 -0.43945312 C24.30683758 -0.4796188 26.78121069 -0.53416419 29.25512695 -0.60351562 C32.81769471 -0.70086528 36.37774856 -0.74599747 39.94140625 -0.78125 C41.59336754 -0.84318542 41.59336754 -0.84318542 43.27870178 -0.90637207 C50.82998375 -0.9107571 50.82998375 -0.9107571 54.12631226 1.65515137 C55.90356505 3.68966528 57.45341041 5.78716236 59 8 C60.6562779 9.71821798 62.33141556 11.41861049 64.03125 13.09375 C64.92457031 13.97933594 65.81789063 14.86492188 66.73828125 15.77734375 C67.64964844 16.67582031 68.56101562 17.57429687 69.5 18.5 C75.04684707 23.96839096 80.52454953 29.37805893 85.44726562 35.42382812 C87.16307884 37.16554041 88.80578606 37.96053179 91 39 C96.25454676 33.77074664 101.50521766 28.53762526 106.75317383 23.30175781 C108.54003677 21.51993287 110.32779494 19.73900522 112.11645508 17.95898438 C114.68284552 15.40468278 117.24603057 12.84720299 119.80859375 10.2890625 C121.01484657 9.09055161 121.01484657 9.09055161 122.24546814 7.86782837 C122.98616043 7.12721161 123.72685272 6.38659485 124.48999023 5.62353516 C125.14507065 4.97067535 125.80015106 4.31781555 126.4750824 3.64517212 C128.08614584 2.06107407 128.08614584 2.06107407 129 0 C146.16 0 163.32 0 181 0 C174.25 7.875 174.25 7.875 171.08950806 11.03074646 C170.01695267 12.10536385 170.01695267 12.10536385 168.92272949 13.20169067 C168.15883911 13.96198578 167.39494873 14.72228088 166.60791016 15.50561523 C165.78773407 16.32593735 164.96755798 17.14625946 164.12252808 17.99143982 C161.43040493 20.6828703 158.73476475 23.37074847 156.0390625 26.05859375 C154.16411824 27.93167153 152.28937215 29.80494556 150.41488647 31.67848206 C145.99718043 36.09309132 141.57693357 40.50514725 137.15574777 44.91627127 C132.11864834 49.94215801 127.08441902 54.97091548 122.05041814 59.99990547 C111.70344935 70.33644733 101.35291534 80.66941416 91 91 C83.72452769 87.50838855 78.57367962 81.79249159 73.31274414 75.80664062 C67.27718556 69.09264101 60.86302426 62.76675587 54.45510674 56.4105072 C52.20424863 54.17723176 49.9571179 51.94026541 47.71095276 49.70227051 C41.33201913 43.34764367 34.9472436 36.99890903 28.55834961 30.65429688 C24.63401001 26.75664937 20.71448263 22.85421689 16.79792976 18.94874573 C15.30659608 17.46363241 13.81336614 15.98042083 12.3182354 14.49913025 C10.24076194 12.44074971 8.16940783 10.37639621 6.09936523 8.31054688 C5.47765442 7.69759766 4.8559436 7.08464844 4.21539307 6.453125 C0 2.2279 0 2.2279 0 0 Z " fill="#258479" transform="translate(423,668)"/>
<path d="M0 0 C2.84024522 1.80742878 4.2825748 2.73362598 5.75 5.75 C6.28984503 11.32839862 5.97031416 14.97505142 2.75 19.75 C-0.89538213 22.96651364 -4.40342411 23.2694935 -9.09765625 23.10546875 C-13.13070746 22.43939314 -15.20152482 20.14796691 -17.5625 17 C-18.97000722 12.39361274 -18.90889456 8.31053976 -17.0625 3.9375 C-12.29164239 -1.8204316 -6.91738816 -2.66053391 0 0 Z " fill="#FCFDFB" transform="translate(383.25,428.25)"/>
<path d="M0 0 C4.33219178 2.75684932 4.33219178 2.75684932 5.75 5.75 C6.3262693 10.01599354 6.19922458 13.60198163 4.625 17.625 C1.36238548 21.32262979 -1.87936614 22.52571446 -6.6875 23.3125 C-11.48119566 22.55560069 -14.02215173 20.26963116 -17.25 16.75 C-18.84799033 13.55401935 -18.61773555 10.22677244 -18.25 6.75 C-14.84225366 -1.32097817 -7.88431245 -3.03242787 0 0 Z " fill="#FCFDFA" transform="translate(622.25,428.25)"/>
<path d="M0 0 C3.76687864 1.88343932 4.79421646 2.69132469 7 6 C4.525 5.01 4.525 5.01 2 4 C2.00114555 5.0778328 2.00229111 6.15566561 2.00347137 7.26616001 C2.03616778 41.59511766 1.93423568 75.92330394 1.80645666 110.25195515 C1.77779041 117.96272571 1.7501263 125.67349979 1.72249681 133.38427413 C1.67324121 147.12345407 1.62324638 160.8626312 1.57275391 174.60180664 C1.52384791 187.90974791 1.47531046 201.21769043 1.42724609 214.52563477 C1.4242591 215.35263252 1.4212721 216.17963027 1.41819459 217.03168856 C1.40320469 221.18249275 1.3882218 225.33329696 1.37324238 229.48410118 C1.24991363 263.65607144 1.1253715 297.82803717 1 332 C0.67 332 0.34 332 0 332 C0 222.44 0 112.88 0 0 Z " fill="#93C19A" transform="translate(281,292)"/>
<path d="M0 0 C-0.6290625 0.24234375 -1.258125 0.4846875 -1.90625 0.734375 C-4.61596807 1.79540918 -7.30812841 2.89454841 -10 4 C-10.66773438 4.25394531 -11.33546875 4.50789063 -12.0234375 4.76953125 C-21.54725766 8.84829811 -33.18266612 19.68644992 -37.1875 29.375 C-41.51596685 41.18958574 -42.06990583 53.04279493 -38 65 C-36.79248958 67.56149399 -35.50907998 69.94150281 -33.98828125 72.328125 C-33 74 -33 74 -33 76 C-32.34 76.33 -31.68 76.66 -31 77 C-28 80.57692308 -28 80.57692308 -28 83 C-26.88625 83.37125 -26.88625 83.37125 -25.75 83.75 C-23 85 -23 85 -21.25 86.875 C-18.48416154 89.48718077 -15.72448383 90.72122711 -12.25 92.25 C-11.07953125 92.77078125 -9.9090625 93.2915625 -8.703125 93.828125 C-7.81109375 94.21484375 -6.9190625 94.6015625 -6 95 C-6 95.66 -6 96.32 -6 97 C-18.96563045 93.38662758 -29.17116621 86.32162661 -35.9765625 74.59375 C-42.47171647 62.40650913 -45.13048374 50.38610823 -42.3125 36.6484375 C-40.20367579 29.84747943 -37.0398172 23.84549307 -33 18 C-32.57203125 17.37480469 -32.1440625 16.74960937 -31.703125 16.10546875 C-25.66580737 8.23919902 -10.48181097 -3.66378115 0 0 Z " fill="#9EC744" transform="translate(628,416)"/>
<path d="M0 0 C0.66 0 1.32 0 2 0 C-0.43125509 9.48189484 -7.42396975 18.95974192 -15.77783203 24.09228516 C-27.64903748 30.78908823 -37.31565214 33.41678217 -51 33 C-51.33 32.34 -51.66 31.68 -52 31 C-50.35064453 30.96132813 -50.35064453 30.96132813 -48.66796875 30.921875 C-39.76439165 30.61725505 -32.19384797 29.8104258 -24 26 C-22.865625 25.505 -21.73125 25.01 -20.5625 24.5 C-17.91962231 22.95294964 -16.11556132 21.19111708 -14 19 C-13.34 19 -12.68 19 -12 19 C-11.773125 18.443125 -11.54625 17.88625 -11.3125 17.3125 C-9.64333462 14.37158957 -7.3864325 12.3864325 -5 10 C-2.84537554 6.80796377 -1.33934114 3.60591845 0 0 Z " fill="#A9D240" transform="translate(680,482)"/>
<path d="M0 0 C0.33 0 0.66 0 1 0 C2.0965752 14.45042424 -1.51904834 26.22515019 -10.6171875 37.41015625 C-17.9659652 45.39743431 -27.18034813 51.17077828 -38 53 C-38 52.34 -38 51.68 -38 51 C-37.030625 50.87625 -36.06125 50.7525 -35.0625 50.625 C-34.051875 50.41875 -33.04125 50.2125 -32 50 C-31.67 49.34 -31.34 48.68 -31 48 C-29 47.66666667 -27 47.33333333 -25 47 C-24.67 46.34 -24.34 45.68 -24 45 C-23.34 44.855625 -22.68 44.71125 -22 44.5625 C-21.34 44.376875 -20.68 44.19125 -20 44 C-19.67 43.01 -19.34 42.02 -19 41 C-15.55555556 38 -15.55555556 38 -13 38 C-12.9175 37.4225 -12.835 36.845 -12.75 36.25 C-12 34 -12 34 -10.1484375 32.25 C-2.07890977 23.79900369 -0.83563889 11.09382668 0 0 Z " fill="#ABD341" transform="translate(443,461)"/>
<path d="M0 0 C-0.94101562 0.45890625 -1.88203125 0.9178125 -2.8515625 1.390625 C-4.10948286 2.01019772 -5.36728931 2.63000177 -6.625 3.25 C-7.24246094 3.55035156 -7.85992187 3.85070312 -8.49609375 4.16015625 C-20.49841928 10.09814888 -28.29597853 17.79191248 -34 30 C-34.97944292 33.2229216 -35.75563793 36.39326739 -36.39453125 39.69921875 C-36.59433594 40.45847656 -36.79414063 41.21773438 -37 42 C-37.99 42.495 -37.99 42.495 -39 43 C-38.1254989 29.44523294 -32.18239606 18.65752369 -22.375 9.25 C-18.78332181 6.30224818 -14.86132162 4.12724044 -10.75 2 C-10.14720215 1.68450195 -9.5444043 1.36900391 -8.92333984 1.04394531 C-5.62085349 -0.57093092 -3.48315259 -1.51741301 0 0 Z " fill="#A3CC48" transform="translate(384,417)"/>
<path d="M0 0 C0.33 0 0.66 0 1 0 C1.15855469 0.90621094 1.31710937 1.81242187 1.48046875 2.74609375 C2.79783023 9.62403078 4.23047274 15.39413422 8.01171875 21.328125 C9 23 9 23 9 25 C9.66 25.33 10.32 25.66 11 26 C14 29.57692308 14 29.57692308 14 32 C14.7425 32.2475 15.485 32.495 16.25 32.75 C19 34 19 34 20.75 35.875 C23.51583846 38.48718077 26.27551617 39.72122711 29.75 41.25 C30.92046875 41.77078125 32.0909375 42.2915625 33.296875 42.828125 C34.18890625 43.21484375 35.0809375 43.6015625 36 44 C36 44.66 36 45.32 36 46 C24.05604273 42.67135617 13.40569183 36.20364499 6.99853516 25.29492188 C3.25469064 18.46950791 -0.17892644 12.16699785 -0.0625 4.25 C-0.05347656 3.45078125 -0.04445313 2.6515625 -0.03515625 1.828125 C-0.02355469 1.22484375 -0.01195312 0.6215625 0 0 Z " fill="#AACF42" transform="translate(586,467)"/>
<path d="M0 0 C3.76687864 1.88343932 4.79421646 2.69132469 7 6 C4.525 5.01 4.525 5.01 2 4 C2 19.51 2 35.02 2 51 C1.34 51 0.68 51 0 51 C0 34.17 0 17.34 0 0 Z " fill="#B0D183" transform="translate(281,292)"/>
<path d="M0 0 C0.4125 0.38671875 0.825 0.7734375 1.25 1.171875 C5.52929684 5.03088376 9.69147936 7.76902697 15 10 C16.01513672 10.433125 16.01513672 10.433125 17.05078125 10.875 C25.35843612 14.03403513 34.20644155 14.06591873 43 14 C37.81051092 17.45965939 31.06897093 16.60841814 25 16 C15.18533994 13.95817947 6.88343076 9.03799129 -1 3 C-0.67 2.01 -0.34 1.02 0 0 Z " fill="#A1C83B" transform="translate(361,499)"/>
<path d="M0 0 C17.16 0 34.32 0 52 0 C52 0.33 52 0.66 52 1 C35.83 1 19.66 1 3 1 C2.67 1.99 2.34 2.98 2 4 C1.34 2.68 0.68 1.36 0 0 Z " fill="#54A091" transform="translate(423,668)"/>
<path d="M0 0 C0.66 0.33 1.32 0.66 2 1 C0.08231242 8.7487051 -2.20119087 14.42465023 -8.125 20 C-8.74375 20.33 -9.3625 20.66 -10 21 C-10.99 20.67 -11.98 20.34 -13 20 C-12.48050781 19.47792969 -11.96101562 18.95585937 -11.42578125 18.41796875 C-6.07105224 12.76630467 -2.81515895 7.24091365 0 0 Z " fill="#312F5C" transform="translate(682,481)"/>
<path d="M0 0 C0.33 0 0.66 0 1 0 C0.979375 0.886875 0.95875 1.77375 0.9375 2.6875 C2.20383987 6.63550078 3.04361474 6.95009254 6.5625 8.875 C8.03166455 9.6038523 9.50811697 10.31885745 11 11 C10.67 11.66 10.34 12.32 10 13 C6.85262818 12.30058404 3.97411124 11.23921302 1 10 C0.0925 10.804375 -0.815 11.60875 -1.75 12.4375 C-4.10309908 14.41142671 -5.86938046 15.63877467 -9 16 C-9 15.34 -9 14.68 -9 14 C-8.05125 13.5875 -7.1025 13.175 -6.125 12.75 C-2.86186881 10.92264654 -2.05748249 10.4608518 -1 7 C-0.61250787 4.67504723 -0.27017161 2.34148732 0 0 Z " fill="#D6E8A9" transform="translate(628,436)"/>
<path d="M0 0 C0.33 0.99 0.66 1.98 1 3 C-0.328125 5.49609375 -0.328125 5.49609375 -2.25 8.4375 C-5.52683587 13.77945907 -7.21012025 18.57048802 -8.39453125 24.69921875 C-8.59433594 25.45847656 -8.79414063 26.21773438 -9 27 C-9.66 27.33 -10.32 27.66 -11 28 C-10.29062387 17.00466995 -6.42246589 8.86300292 0 0 Z " fill="#9EC642" transform="translate(356,432)"/>
<path d="M0 0 C0.99 0.495 0.99 0.495 2 1 C2.46178682 2.75478992 2.84320168 4.53092952 3.1875 6.3125 C4.61068339 12.53427034 7.22852048 17.2685622 10.671875 22.6015625 C11.11015625 23.39304687 11.5484375 24.18453125 12 25 C11.67 25.66 11.34 26.32 11 27 C5.27669945 20.85275127 0.2431273 10.59192783 -0.125 2.125 C-0.08375 1.42375 -0.0425 0.7225 0 0 Z " fill="#A9D042" transform="translate(345,470)"/>
<path d="M0 0 C4 2 4 2 6 5 C3.525 4.01 3.525 4.01 1 3 C1 12.9 1 22.8 1 33 C0.67 33 0.34 33 0 33 C0 22.11 0 11.22 0 0 Z " fill="#A3CE35" transform="translate(282,293)"/>
<path d="M0 0 C6.5146858 2.89541591 10.18887482 7.24417529 13.875 13.125 C14.29007813 13.75792969 14.70515625 14.39085937 15.1328125 15.04296875 C16.15828367 16.65295849 17.0880113 18.32311756 18 20 C17.67 20.66 17.34 21.32 17 22 C16.35933594 21.07058594 15.71867188 20.14117187 15.05859375 19.18359375 C10.44431529 12.56431208 5.91998134 6.5338956 0 1 C0 0.67 0 0.34 0 0 Z " fill="#85B952" transform="translate(685,406)"/>
<path d="M0 0 C0.4125 0.38671875 0.825 0.7734375 1.25 1.171875 C5.0023719 4.55571037 8.60376842 7.0433184 13.203125 9.140625 C15 10 15 10 18 12 C15 13 15 13 12.4765625 11.92578125 C2.93402827 6.52705983 2.93402827 6.52705983 -1 3 C-0.67 2.01 -0.34 1.02 0 0 Z " fill="#ABCE41" transform="translate(361,499)"/>
<path d="M0 0 C-1.13685423 3.41056269 -2.15331969 4.19934165 -4.875 6.4375 C-7.68861414 8.75795299 -9.90741794 11.00589673 -12 14 C-13.32 13.67 -14.64 13.34 -16 13 C-13.71584679 10.82529395 -11.42149089 8.66166755 -9.125 6.5 C-8.47402344 5.87996094 -7.82304688 5.25992187 -7.15234375 4.62109375 C-6.21455078 3.74130859 -6.21455078 3.74130859 -5.2578125 2.84375 C-4.6817627 2.29912109 -4.10571289 1.75449219 -3.51220703 1.19335938 C-2 0 -2 0 0 0 Z " fill="#8DBE4C" transform="translate(649,374)"/>
<path d="M0 0 C0.66 0.33 1.32 0.66 2 1 C0.51887086 3.82359938 -0.98728161 6.51946058 -3 9 C-5.8125 9.5 -5.8125 9.5 -8 9 C-6.4169423 4.7257442 -3.49431596 2.73468206 0 0 Z " fill="#E9F2D1" transform="translate(402,467)"/>
<path d="M0 0 C0 4.05091709 -1.58978757 5.28156908 -4.19921875 8.21484375 C-6.89892091 10.89112116 -9.83025176 12.90796616 -13 15 C-11.38989473 10.92623969 -8.46177729 8.23492931 -5.375 5.25 C-4.859375 4.74339844 -4.34375 4.23679687 -3.8125 3.71484375 C-2.54616661 2.47196098 -1.2736856 1.23534724 0 0 Z " fill="#64AC62" transform="translate(455,512)"/>
<path d="M0 0 C0.66 0.33 1.32 0.66 2 1 C-1.96 4.96 -5.92 8.92 -10 13 C-10.66 12.67 -11.32 12.34 -12 12 C-10.37860535 10.18415766 -8.75313264 8.3722838 -7.125 6.5625 C-6.66480469 6.04623047 -6.20460938 5.52996094 -5.73046875 4.99804688 C-2.2265625 1.11328125 -2.2265625 1.11328125 0 0 Z " fill="#333562" transform="translate(345,407)"/>
<path d="M0 0 C2.04159095 -0.0272616 4.08328963 -0.04651345 6.125 -0.0625 C7.26195312 -0.07410156 8.39890625 -0.08570313 9.5703125 -0.09765625 C12.8129156 -0.005327 15.81932612 0.38610094 19 1 C15.26295091 3.44743769 12.16842154 3.09305703 7.8125 2.75 C6.56082031 2.66234375 5.30914063 2.5746875 4.01953125 2.484375 C3.02308594 2.32453125 2.02664063 2.1646875 1 2 C0.67 1.34 0.34 0.68 0 0 Z " fill="#97B84E" transform="translate(628,414)"/>
<path d="M0 0 C-5.673142 2.45417612 -10.81839396 4.46246904 -17 5 C-14.65117776 2.65117776 -12.72876333 1.96496976 -9.625 0.8125 C-8.66851563 0.44769531 -7.71203125 0.08289063 -6.7265625 -0.29296875 C-3.94714704 -1.01370542 -2.64891897 -0.98549829 0 0 Z " fill="#9EC546" transform="translate(628,416)"/>
<path d="M0 0 C1.6415049 3.2830098 0.51888624 6.42545033 0 10 C-0.33 10 -0.66 10 -1 10 C-1.33 8.35 -1.66 6.7 -2 5 C-3.32 5.99 -4.64 6.98 -6 8 C-6.66 7.67 -7.32 7.34 -8 7 C-5.36 4.69 -2.72 2.38 0 0 Z " fill="#72B362" transform="translate(559,453)"/>
<path d="M0 0 C0.99 0.66 1.98 1.32 3 2 C-3.435 2.495 -3.435 2.495 -10 3 C-10 2.34 -10 1.68 -10 1 C-6.47005387 -0.17664871 -3.70544587 -0.19850603 0 0 Z " fill="#D5E3F1" transform="translate(629,386)"/>
<path d="M0 0 C0.66 0 1.32 0 2 0 C0.53967505 5.31027254 -1.98320986 9.46330032 -5 14 C-5.33 13.01 -5.66 12.02 -6 11 C-4.71810412 8.96664791 -3.37843192 6.96918846 -2 5 C-1.28426473 3.35380887 -0.5974304 1.69271945 0 0 Z " fill="#A6CC41" transform="translate(680,482)"/>
<path d="M0 0 C0.99 0.33 1.98 0.66 3 1 C1.7391988 2.03319813 0.46596742 3.05124379 -0.8125 4.0625 C-1.87404297 4.91521484 -1.87404297 4.91521484 -2.95703125 5.78515625 C-3.63121094 6.18605469 -4.30539062 6.58695312 -5 7 C-5.99 6.67 -6.98 6.34 -8 6 C-6.7391988 4.96680187 -5.46596742 3.94875621 -4.1875 2.9375 C-3.47980469 2.36902344 -2.77210938 1.80054688 -2.04296875 1.21484375 C-1.36878906 0.81394531 -0.69460938 0.41304688 0 0 Z " fill="#B2DB4B" transform="translate(610,421)"/>
<path d="M0 0 C0.99 0.33 1.98 0.66 3 1 C3 1.66 3 2.32 3 3 C0.4385343 5.29648649 -0.47967572 6 -4 6 C-4 4 -4 4 -2 1.875 C-1.34 1.25625 -0.68 0.6375 0 0 Z " fill="#D3E89B" transform="translate(400,480)"/>
<path d="M0 0 C1.46313772 0.76167457 2.92036661 1.53470707 4.375 2.3125 C5.18710937 2.74175781 5.99921875 3.17101562 6.8359375 3.61328125 C9 5 9 5 11 8 C8.5625 7.625 8.5625 7.625 6 7 C5.67 6.34 5.34 5.68 5 5 C4.154375 4.505 3.30875 4.01 2.4375 3.5 C1.633125 3.005 0.82875 2.51 0 2 C0 1.34 0 0.68 0 0 Z " fill="#A4CC3E" transform="translate(416,419)"/>
<path d="M0 0 C1.13643966 3.40931897 0.86747764 4.00335456 -0.4375 7.1875 C-0.72496094 7.90292969 -1.01242187 8.61835938 -1.30859375 9.35546875 C-1.53675781 9.89816406 -1.76492188 10.44085938 -2 11 C-2.66 11 -3.32 11 -4 11 C-3.5247412 9.35303396 -3.04468109 7.70745272 -2.5625 6.0625 C-2.29566406 5.14597656 -2.02882813 4.22945313 -1.75390625 3.28515625 C-1 1 -1 1 0 0 Z " fill="#3A385F" transform="translate(443,477)"/>
<path d="M0 0 C0.33 0 0.66 0 1 0 C1.36923077 4.55384615 1.36923077 4.55384615 -0.5 6.8125 C-0.995 7.204375 -1.49 7.59625 -2 8 C-2.99 7.67 -3.98 7.34 -5 7 C-4.19152271 5.83054208 -3.37810888 4.66449539 -2.5625 3.5 C-2.11003906 2.8503125 -1.65757812 2.200625 -1.19140625 1.53125 C-0.79824219 1.0259375 -0.40507812 0.520625 0 0 Z " fill="#38385E" transform="translate(437,490)"/>
<path d="M0 0 C-0.50603992 2.16874252 -0.99983813 3.99967627 -2 6 C-2.66 6 -3.32 6 -4 6 C-4.33 5.01 -4.66 4.02 -5 3 C-2.25 0 -2.25 0 0 0 Z " fill="#B5D85E" transform="translate(367,446)"/>
</svg>
