<svg xmlns="http://www.w3.org/2000/svg" viewBox="0 0 128 128" width="128" height="128">
  <defs>
    <linearGradient id="bg" x1="0%" y1="0%" x2="100%" y2="100%">
      <stop offset="0%" style="stop-color:#00CED1"/>
      <stop offset="100%" style="stop-color:#1c6066"/>
    </linearGradient>
  </defs>

  <!-- Background circle -->
  <circle cx="64" cy="64" r="60" fill="url(#bg)" stroke="#D473F4" stroke-width="4"/>

  <!-- Database icon -->
  <ellipse cx="64" cy="50" rx="25" ry="15" fill="white" opacity="0.9"/>
  <ellipse cx="64" cy="64" rx="25" ry="15" fill="white" opacity="0.7"/>
  <ellipse cx="64" cy="78" rx="25" ry="15" fill="white" opacity="0.5"/>

  <!-- M letter -->
  <path d="M 45 90 L 45 110 L 50 110 L 50 95 L 58 95 L 58 110 L 63 110 L 63 95 L 71 95 L 71 110 L 76 110 L 76 90 L 71 90 L 71 85 L 63 85 L 63 90 L 58 90 L 58 85 L 50 85 L 50 90 Z" fill="white"/>
</svg>